<?xml version="1.0" encoding="UTF-8"?>
<svg width="752pt" height="752pt" version="1.1" viewBox="0 0 752 752" xmlns="http://www.w3.org/2000/svg">
 <g fill="#fff">
  <path d="m178.68 237.88c0-32.695 26.504-59.199 59.199-59.199h197.32c32.695 0 59.199 26.504 59.199 59.199v64.168c-12.613-3.2461-25.84-4.9727-39.469-4.9727v-59.195c0-10.898-8.832-19.734-19.73-19.734h-197.32c-10.898 0-19.734 8.8359-19.734 19.734v220.43c6.1719-2.1797 12.812-3.3711 19.734-3.3711h59.195c0 13.629 1.7266 26.855 4.9727 39.469h-64.168c-10.898 0-19.734 8.832-19.734 19.73 0 10.898 8.8359 19.734 19.734 19.734h80.316c8.5898 14.852 19.535 28.18 32.324 39.465h-112.64c-32.695 0-59.199-26.504-59.199-59.199z"/>
  <path d="m500.76 476.48c7.7031-7.7031 7.7031-20.199 0-27.906-7.1289-7.125-18.352-7.6602-26.094-1.6055v-31.5c0-10.898-8.8359-19.73-19.734-19.73-10.895 0-19.73 8.832-19.73 19.73v31.5c-7.7422-6.0547-18.969-5.5195-26.094 1.6055-7.707 7.707-7.707 20.203 0 27.906l31.875 31.871c7.7031 7.707 20.199 7.707 27.902 0z"/>
  <path d="m336.54 454.93c0-65.387 53.008-118.39 118.39-118.39 65.391 0 118.4 53.008 118.4 118.39 0 65.391-53.008 118.4-118.4 118.4-65.387 0-118.39-53.008-118.39-118.4zm118.39-78.93c-43.59 0-78.93 35.34-78.93 78.93 0 43.594 35.34 78.934 78.93 78.934 43.594 0 78.934-35.34 78.934-78.934 0-43.59-35.34-78.93-78.934-78.93z" fill-rule="evenodd"/>
 </g>
</svg>
