<?xml version='1.0' encoding='utf-8'?>
<!DOCTYPE svg PUBLIC '-//W3C//DTD SVG 1.1//EN' 'http://www.w3.org/Graphics/SVG/1.1/DTD/svg11.dtd'>
<svg version="1.1" xmlns="http://www.w3.org/2000/svg" viewBox="0 0 512 512" xmlns:xlink="http://www.w3.org/1999/xlink" enable-background="new 0 0 512 512">
  <g>
    <g>
      <path d="m388.1,405.6h-264.2c-11.3,0-20.4-9.1-20.4-20.4 0-11.3 9.1-20.4 20.4-20.4h264.2c11.3,0 20.4,9.1 20.4,20.4 0,11.2-9.1,20.4-20.4,20.4zm-280-240.2l42.2-51.5c7.8-9.5 23.8-9.5 31.6,0l42.2,51.5c7.1,8.7 5.9,21.6-2.9,28.7-3.8,3.1-17.5,11.1-28.7-2.9l-6-7.3v112.5c0,11.3-9.1,20.4-20.4,20.4-11.3,0-20.4-9.1-20.4-20.4v-112.4l-6,7.3c-7.1,8.7-20,10-28.7,2.9-8.8-7.2-10-20.1-2.9-28.8zm179.8,0l42.2-51.5c7.8-9.5 23.8-9.5 31.6,0l42.2,51.5c7.1,8.7 5.9,21.6-2.8,28.7-3.8,3.1-14.5,11.1-28.7-2.9l-6-7.3v112.5c0,11.3-9.1,20.4-20.4,20.4-11.3,0-20.4-9.1-20.4-20.4v-112.4l-6,7.3c-7.1,8.7-20,10-28.7,2.9-8.9-7.2-10.2-20.1-3-28.8zm192.7-154.4h-449.2c-11.3,0-20.4,9.1-20.4,20.4v449.2c0,11.3 9.1,20.4 20.4,20.4h449.2c11.3,0 20.4-9.1 20.4-20.4v-449.2c5.68434e-14-11.3-9.1-20.4-20.4-20.4z"/>
    </g>
  </g>
</svg>
