<?xml version="1.0" encoding="UTF-8"?>
<svg width="752pt" height="752pt" version="1.1" viewBox="0 0 752 752" xmlns="http://www.w3.org/2000/svg">
 <defs>
  <clipPath id="b">
   <path d="m139.21 388h473.58v224.79h-473.58z"/>
  </clipPath>
  <clipPath id="a">
   <path d="m272 139.21h208v222.79h-208z"/>
  </clipPath>
 </defs>
 <g>
  <g clip-path="url(#b)">
   <path d="m599.84 403.82-2.5547-2.5586c-8.3359-8.3047-19.625-12.965-31.391-12.965-11.77 0-23.055 4.6602-31.395 12.965l-32.137 32.137c-7.0547 6.2383-15.367 10.891-24.375 13.637 3.6953-13.363 0.9375-27.688-7.457-38.723-8.3945-11.035-21.461-17.516-35.328-17.516h-148c-23.176 1.0586-44.398 13.293-56.93 32.816l-85.691 141.34c-3.1797 4.8438-5.0078 10.449-5.293 16.234-0.28906 5.7891 0.98047 11.547 3.668 16.68 3.1211 4.8789 7.4922 8.8359 12.66 11.457 5.1641 2.625 10.938 3.8164 16.723 3.4609h114.86c4.9492-0.003907 9.5703-2.4766 12.316-6.5938l25.203-37.805h140.07c48.445 0 120.48-84.074 135.57-102.36 8.0625-8.3828 12.523-19.586 12.422-31.215-0.097656-11.629-4.75-22.754-12.953-30.996zm-20.941 41.84c-0.34375 0.33203-0.66797 0.69141-0.96875 1.0625-31.441 38.227-87.324 92.066-113.13 92.066h-147.99c-4.9492 0.003906-9.5703 2.4766-12.312 6.5938l-25.203 37.805h-106.95c-1.1523 0.023438-2.2969-0.10938-3.4102-0.39844 0.24219-0.99219 0.62891-1.9414 1.1523-2.8203l85.688-141.34v0.003906c7.168-10.539 18.73-17.246 31.434-18.242h148c5.2891 0 10.172 2.8203 12.816 7.4023 2.6445 4.5781 2.6445 10.219 0 14.797s-7.5273 7.4023-12.816 7.4023h-73.996c-5.2891 0-10.176 2.8203-12.816 7.3984-2.6445 4.5781-2.6445 10.219 0 14.801 2.6406 4.5781 7.5273 7.3984 12.816 7.3984h101.09c22.664-0.96484 44.258-9.9141 60.957-25.262l32.137-32.137c2.8359-2.6641 6.5742-4.1445 10.461-4.1445 3.8867 0 7.6289 1.4805 10.461 4.1445l2.5547 2.5586h-0.003907c2.7539 2.7852 4.3008 6.5469 4.3008 10.465 0 3.918-1.5469 7.6758-4.3008 10.461z" fill="#fff"/>
  </g>
  <g clip-path="url(#a)">
   <path d="m280.58 315.24 88.797 44.398c0.57812 0.25391 1.1719 0.46875 1.7773 0.64453 0.37891 0.13281 0.73828 0.30469 1.125 0.40625 2.4336 0.67969 5.0078 0.67969 7.4414 0 0.38672-0.10547 0.73828-0.27344 1.125-0.40625 0.60547-0.17578 1.1953-0.39062 1.7695-0.64453l88.797-44.398c2.457-1.2266 4.5273-3.1172 5.9727-5.457 1.4453-2.3359 2.2109-5.0312 2.2109-7.7812v-103.59c-0.007812-1.3242-0.19141-2.6406-0.54688-3.918-0.125-0.4375-0.33984-0.82031-0.50391-1.2422-0.27734-0.80469-0.62109-1.582-1.0273-2.3281-0.28906-0.44141-0.60156-0.86328-0.93359-1.2656-0.44531-0.63281-0.94141-1.2266-1.4805-1.7773-0.41406-0.37891-0.84766-0.73047-1.3008-1.0586-0.39453-0.35156-0.80469-0.6875-1.2305-1-0.20703-0.125-0.4375-0.17578-0.64453-0.28906-0.20703-0.10938-0.32422-0.26562-0.52344-0.36328l-88.797-44.398v0.003907c-4.168-2.0859-9.0703-2.0859-13.238 0l-88.797 44.398c-0.19141 0.097656-0.33203 0.25-0.51953 0.35547-0.18359 0.10547-0.4375 0.17188-0.64453 0.29688l0.003906-0.003907c-0.42578 0.3125-0.83594 0.64844-1.2305 1-0.45312 0.32813-0.89062 0.68359-1.3086 1.0586-0.53906 0.55469-1.0312 1.1523-1.4805 1.7812-0.32812 0.40625-0.63672 0.82422-0.92578 1.2617-0.41016 0.74609-0.75391 1.5273-1.0273 2.3359-0.16406 0.41406-0.37891 0.80078-0.50391 1.2344-0.35156 1.2773-0.53125 2.5938-0.53125 3.918v103.59c0 2.75 0.76172 5.4414 2.207 7.7812 1.4453 2.3359 3.5117 4.2266 5.9688 5.457zm21.422-92.887 59.199 29.598v70.504l-59.199-29.598zm88.797 100.1v-70.504l59.199-29.598v70.504zm-14.801-151.9 55.699 27.855-55.699 27.852-55.695-27.852z" fill="#fff"/>
  </g>
 </g>
</svg>
