<?xml version="1.0" encoding="UTF-8"?>
<svg width="752pt" height="752pt" version="1.1" viewBox="0 0 752 752" xmlns="http://www.w3.org/2000/svg">
 <g fill="#fff">
  <path d="m537.49 151.05h-322.98c-35.047 0-63.461 28.414-63.461 63.461v322.98c0 35.047 28.414 63.461 63.461 63.461h322.98c35.047 0 63.461-28.414 63.461-63.461v-322.98c0-35.047-28.414-63.461-63.461-63.461zm26.047 386.44c0 14.207-11.84 26.047-26.047 26.047h-322.98c-14.207 0-26.047-11.84-26.047-26.047v-322.98c0-14.207 11.84-26.047 26.047-26.047h322.98c14.207 0 26.047 11.84 26.047 26.047z"/>
  <path d="m300.23 313.02h-39.309c-5.2109 0-9.4727 4.2617-9.4727 9.4727l0.003907 162.44c0 5.2109 4.2617 9.4727 9.4727 9.4727h39.305c5.2109 0 9.4727-4.2617 9.4727-9.4727v-162.44c0-5.2109-4.2617-9.4727-9.4727-9.4727z"/>
  <path d="m395.89 257.61h-39.309c-5.2109 0-9.4727 4.2617-9.4727 9.4727v217.85c0 5.2109 4.2617 9.4727 9.4727 9.4727h39.309c5.2109 0 9.4727-4.2617 9.4727-9.4727v-217.85c-0.47266-5.2109-4.7344-9.4727-9.4727-9.4727z"/>
  <path d="m491.08 363.69h-39.309c-5.2109 0-9.4727 4.2617-9.4727 9.4727l0.003907 111.77c0 5.2109 4.2617 9.4727 9.4727 9.4727h39.309c5.2109 0 9.4727-4.2617 9.4727-9.4727l-0.003906-111.77c0-5.2109-4.2656-9.4727-9.4727-9.4727z"/>
 </g>
</svg>
