<?xml version="1.0" encoding="UTF-8"?>
<svg width="752pt" height="752pt" version="1.1" viewBox="0 0 752 752" xmlns="http://www.w3.org/2000/svg">
 <g fill="#fff" fill-rule="evenodd">
  <path d="m356.27 198.41c-43.594 0-78.93 35.336-78.93 78.93 0 20.016 7.4492 38.293 19.73 52.207v85.918c0 6.8398 3.543 13.191 9.3594 16.789 5.8164 3.5938 13.082 3.918 19.199 0.86328l30.641-15.32 30.641 15.32c6.1172 3.0547 13.379 2.7305 19.195-0.86328 5.8203-3.5977 9.3594-9.9492 9.3594-16.789v-85.918c12.281-13.914 19.734-32.191 19.734-52.207 0-43.594-35.34-78.93-78.93-78.93zm0 118.39c21.797 0 39.465-17.672 39.465-39.465 0-21.797-17.668-39.465-39.465-39.465s-39.465 17.668-39.465 39.465c0 21.793 17.668 39.465 39.465 39.465z"/>
  <path d="m265.82 237.88c-5.2812 12.086-8.2109 25.434-8.2109 39.465 0 22.199 7.3516 42.719 19.734 59.203v78.922c0 13.68 7.082 26.383 18.715 33.574 11.637 7.1875 26.164 7.8438 38.398 1.7266l21.816-10.906 21.816 10.906c12.23 6.1172 26.762 5.4609 38.398-1.7266 11.633-7.1914 18.715-19.895 18.715-33.574v-78.922c8.6133-11.469 14.793-24.891 17.754-39.473h31.578c8.6602 0 16.312 5.6523 18.859 13.93l17.25 56.062 41.777 20.891c6.6875 3.3398 10.91 10.172 10.91 17.648v88.797c0 10.898-8.8359 19.73-19.734 19.73h-23.102c-8.125 22.992-30.055 39.465-55.828 39.465-25.773 0-47.703-16.473-55.828-39.465h-85.668c-8.125 22.992-30.055 39.465-55.828 39.465-25.777 0-47.703-16.473-55.832-39.465h-23.098c-10.898 0-19.734-8.832-19.734-19.73v-236.79c0-10.898 8.8359-19.73 19.734-19.73zm189.11 256.52c0-10.898 8.8359-19.734 19.734-19.734 10.898 0 19.734 8.8359 19.734 19.734 0 10.898-8.8359 19.73-19.734 19.73-10.898 0-19.734-8.832-19.734-19.73zm-177.59-19.734c-10.898 0-19.734 8.8359-19.734 19.734 0 10.898 8.8359 19.73 19.734 19.73 10.898 0 19.73-8.832 19.73-19.73 0-10.898-8.832-19.734-19.73-19.734z"/>
 </g>
</svg>
