<?xml version="1.0" encoding="UTF-8"?>
<svg width="752pt" height="752pt" version="1.1" viewBox="0 0 752 752" xmlns="http://www.w3.org/2000/svg">
 <g fill="#fff">
  <path d="m233.49 178.68c-29.59 0-54.812 23.309-54.812 53.559v16.59c-0.003906 0.20312-0.003906 0.41016 0 0.61328v151.93c0 30.25 25.223 53.559 54.812 53.559h83.316c0-13.711 1.9961-26.957 5.7188-39.465h-89.035c-9.1602 0-15.348-6.9805-15.348-14.094v-116.08l108 69.426c7.7656 4.9961 16.508 7.8672 25.398 8.6172 23.211-26.184 56.215-43.484 93.273-46.168l49.586-31.875v37.23c14.254 4.2422 27.543 10.727 39.465 19.039v-92.121c0.003907-0.20703 0.003907-0.41406 0-0.62109v-16.586c0-30.25-25.223-53.559-54.816-53.559zm131.57 142.85 129.34-83.148v-6.1406c0-7.1133-6.1914-14.094-15.352-14.094h-245.56c-9.1602 0-15.348 6.9805-15.348 14.094v6.1406l129.34 83.148c5.2852 3.3945 12.293 3.3945 17.578 0z" fill-rule="evenodd"/>
  <path d="m409.11 433.39c-7.707 7.707-7.707 20.199 0 27.906 7.125 7.1289 18.352 7.6641 26.094 1.6055v31.5c0 10.898 8.8359 19.734 19.73 19.734 10.898 0 19.734-8.8359 19.734-19.734v-31.5c7.7422 6.0586 18.965 5.5234 26.094-1.6055 7.7031-7.707 7.7031-20.199 0-27.906l-31.875-31.871c-7.7031-7.707-20.199-7.707-27.902 0z"/>
  <path d="m336.54 454.93c0-65.387 53.008-118.39 118.39-118.39 65.391 0 118.4 53.008 118.4 118.39 0 65.391-53.008 118.4-118.4 118.4-65.387 0-118.39-53.008-118.39-118.4zm118.39-78.93c-43.59 0-78.93 35.34-78.93 78.93 0 43.594 35.34 78.934 78.93 78.934 43.594 0 78.934-35.34 78.934-78.934 0-43.59-35.34-78.93-78.934-78.93z" fill-rule="evenodd"/>
 </g>
</svg>
